<?xml version="1.0" encoding="UTF-8"?>
<svg version="1.1" xmlns="http://www.w3.org/2000/svg" width="262" height="210">
<path d="M0 0 C86.46 0 172.92 0 262 0 C262 69.3 262 138.6 262 210 C175.54 210 89.08 210 0 210 C0 140.7 0 71.4 0 0 Z " fill="#EDF4F3" transform="translate(0,0)"/>
<path d="M0 0 C3.44028327 2.20509723 6.76140327 4.50877175 10 7 C10.928125 6.21625 11.85625 5.4325 12.8125 4.625 C17.42843352 0.72710058 20.32928674 -0.52548812 26.37109375 -0.3671875 C31.77647577 0.38779899 35.35439521 2.97773456 38.7578125 7.16015625 C48.51753434 21.28110646 48.35142382 38.54003325 46 55 C45.67 55 45.34 55 45 55 C44.93006836 54.36610352 44.86013672 53.73220703 44.78808594 53.07910156 C42.60526613 30.55805138 42.60526613 30.55805138 32 11 C28.29584707 8.53056471 26.37855495 8.53086911 22 9 C20.26777639 10.95135188 20.26777639 10.95135188 19 13 C19.7734375 13.66644531 20.546875 14.33289063 21.34375 15.01953125 C30.64126264 23.18345621 41.27655075 32.78823552 42.203125 45.8671875 C42.31989924 53.36020151 42.31989924 53.36020151 41 56 C41.78375 55.896875 42.5675 55.79375 43.375 55.6875 C49.70058456 56.23280901 55.14346256 59.09818116 59.5625 63.625 C62.12013325 67.85065494 62.38712385 71.12223945 62 76 C58.9281781 88.37030983 49.53946832 96.60476392 39 103 C30.14094581 108.23443545 30.14094581 108.23443545 26 110 C24.515 109.505 24.515 109.505 23 109 C23.845625 108.43152344 24.69125 107.86304688 25.5625 107.27734375 C36.94404807 99.56363144 48.40437793 91.67796521 53 78 C53.49323396 74.50252281 53.71372779 71.16450323 51.8125 68.0625 C49.57501375 66.75087013 47.55687669 66.34552388 45 66 C44.9175 67.2375 44.835 68.475 44.75 69.75 C43.40811453 81.62195891 38.23923904 95.95567409 29 104 C26.38245779 105.59513874 23.82734901 106.78131508 21 108 C21.495 109.4540625 21.495 109.4540625 22 110.9375 C23.58563758 116.57278752 23.7975918 121.77513866 21.8125 127.3125 C18.73203728 131.88008265 15.18241245 134.2943959 10 136 C-9.3398365 137.94075372 -23.34361017 129.02008949 -39 119 C-39.66 119.598125 -40.32 120.19625 -41 120.8125 C-45.15878091 123.84494442 -49.02592457 126.11089773 -54.3046875 125.9140625 C-59.46843662 124.99258538 -63.71229077 123.21664647 -67 119 C-73.8513958 107.58100701 -75.30482201 98.09934206 -75.125 85 C-75.11597656 83.74832031 -75.10695313 82.49664062 -75.09765625 81.20703125 C-75.07422716 78.1378199 -75.04142147 75.06901244 -75 72 C-74.01 71.505 -74.01 71.505 -73 71 C-72.93530518 71.65895264 -72.87061035 72.31790527 -72.80395508 72.99682617 C-70.79736417 96.2803266 -70.79736417 96.2803266 -59.125 115.9375 C-56.08804431 117.45597784 -54.21374978 116.88890951 -51 116 C-50.01 115.34 -49.02 114.68 -48 114 C-49.38344988 110.77195029 -50.88715026 109.04564581 -53.625 106.875 C-60.9588868 100.66119773 -69.11878523 91.74648412 -71 82 C-71.09037274 80.29354998 -71.130101 78.58383377 -71.125 76.875 C-71.12886719 75.57175781 -71.12886719 75.57175781 -71.1328125 74.2421875 C-71 72 -71 72 -70 70 C-70.99 69.9175 -71.98 69.835 -73 69.75 C-78.74860494 68.91044715 -83.43414602 66.64615419 -87.4375 62.4375 C-90.59567865 57.51074131 -90.56946701 52.67767105 -90 47 C-86.87874277 35.2335339 -75.30009995 26.81109258 -65.35546875 20.88671875 C-61.28849934 18.59993618 -57.38253372 16.60692903 -53 15 C-52.34 15.33 -51.68 15.66 -51 16 C-51.90621094 16.6290625 -52.81242187 17.258125 -53.74609375 17.90625 C-72.44198176 30.41657544 -72.44198176 30.41657544 -82.25 49.875 C-82.39563345 53.40819424 -82.03401404 53.95335218 -79.8125 57 C-77.26531717 58.81133002 -75.94381995 59.39484643 -73 60 C-73.103125 58.824375 -73.20625 57.64875 -73.3125 56.4375 C-73.27754042 45.33783212 -67.9281016 33.46767974 -61 25 C-57.05627607 21.20398109 -54.58535522 19 -49 19 C-49.495 17.63875 -49.495 17.63875 -50 16.25 C-51.70124107 10.25281924 -52.4717371 2.93089525 -49.62890625 -2.73046875 C-37.4708835 -19.670064 -14.13068453 -8.15776722 0 0 Z " fill="#181818" transform="translate(149,46)"/>
<path d="M0 0 C5.86531223 4.34505617 9.88875642 10.78849216 11 18 C11.07609855 20.67296174 11.04491492 23.32475537 11 26 C-13.5559637 35.46089023 -13.5559637 35.46089023 -26 35 C-25.23125106 23.72501548 -19.16635153 11.17978584 -11.20703125 3.203125 C-7.43987073 0.24261916 -4.69592192 -0.55387797 0 0 Z " fill="#E9F0EF" transform="translate(104,72)"/>
<path d="M0 0 C8.3331839 5.9827987 16.43177536 15.91543793 19 26 C20.10928705 35.55792683 20.10928705 35.55792683 17.6328125 38.77734375 C13.14861802 42.13512574 5.37233556 41.58843505 0 41 C-3.77606801 39.90680205 -7.38486021 38.53952721 -11 37 C-10.85426053 29.38180034 -9.83881277 22.4298262 -7.75 15.125 C-7.55768799 14.4244751 -7.36537598 13.7239502 -7.16723633 13.00219727 C-5.6229884 7.88205211 -3.28228264 4.21850419 0 0 Z " fill="#E9F0EF" transform="translate(165,61)"/>
<path d="M0 0 C2.125 1.9375 2.125 1.9375 3 4 C1.59445765 14.21589321 -4.1028359 20.8405561 -12 27 C-16.49499017 25.53224811 -19.77141823 23.0386451 -23.3125 20 C-23.8806543 19.51450684 -24.44880859 19.02901367 -25.03417969 18.52880859 C-37.88865731 7.27657847 -37.88865731 7.27657847 -39 -1 C-28.40402818 -5.67469345 -9.7637109 -7.21126871 0 0 Z " fill="#EAF0EF" transform="translate(148,59)"/>
<path d="M0 0 C-0.99964885 11.49596179 -6.61939813 23.12868157 -14.9375 31.125 C-17.65066169 33.28624477 -19.11986255 34.03154278 -22.5625 34.9375 C-27.82856974 33.50129916 -30.22307038 30.60764619 -33 26 C-35.13614414 20.90753031 -36.97918108 15.87301151 -37.01953125 10.3046875 C-35.72416826 7.37647232 -34.09631729 6.6907043 -31.18798828 5.52783203 C-30.52782715 5.29177246 -29.86766602 5.05571289 -29.1875 4.8125 C-28.51187012 4.55839355 -27.83624023 4.30428711 -27.14013672 4.04248047 C-18.21001756 0.81485322 -9.46644665 -0.31554822 0 0 Z " fill="#EAF1F0" transform="translate(191,111)"/>
<path d="M0 0 C3.58824668 1.28151667 6.16221969 3.42389131 8.9921875 5.89453125 C9.56106689 6.38308594 10.12994629 6.87164062 10.71606445 7.375 C16.60669558 12.56136194 21.333051 18.4370765 25.6796875 24.95703125 C25.6796875 25.94703125 25.6796875 26.93703125 25.6796875 27.95703125 C18.55571932 29.65053682 11.8054078 30.29476665 4.4921875 30.26953125 C3.07389648 30.29370117 3.07389648 30.29370117 1.62695312 30.31835938 C-5.01730336 30.32298952 -9.79275804 29.56528364 -15.25390625 25.52734375 C-17.09380317 22.81804499 -16.49090226 20.54681834 -16.01953125 17.4296875 C-14.09591177 10.62716723 -9.25720459 5.50414207 -4.12890625 0.85546875 C-2.3203125 -0.04296875 -2.3203125 -0.04296875 0 0 Z " fill="#EAF1F0" transform="translate(135.3203125,132.04296875)"/>
<path d="M0 0 C1.93119872 5.63674753 0.12269843 11.33446221 -1 17 C-1.12246094 17.69351563 -1.24492188 18.38703125 -1.37109375 19.1015625 C-2.75582117 25.81106649 -6.03062306 31.87449286 -9 38 C-18.63864901 30.47158775 -27.01099309 19.43777102 -29.58203125 7.23828125 C-29.73470674 3.81721934 -29.26277756 1.43796261 -27.5 -1.5 C-19.47942409 -6.31234554 -7.92985072 -3.96492536 0 0 Z " fill="#EAF0EF" transform="translate(114,119)"/>
<path d="M0 0 C4.47689812 0.77187899 6.85701103 2.13206154 9.625 5.625 C17.92236726 19.00197502 19.26458402 33.3243214 20.625 48.625 C18.975 48.625 17.325 48.625 15.625 48.625 C15.67140625 47.80257812 15.7178125 46.98015625 15.765625 46.1328125 C16.1862081 33.1247781 12.45801637 25.083749 3.625 15.625 C0.0806071 12.1538731 -3.6213453 8.86804726 -7.375 5.625 C-3.796875 0.703125 -3.796875 0.703125 0 0 Z " fill="#E5EBEA" transform="translate(174.375,53.375)"/>
<path d="M0 0 C2.24587654 1.08134796 4.33545396 2.21503459 6.4375 3.5625 C15.93440624 8.89003277 30.26624038 6.37980254 40.328125 3.8515625 C42.97817373 3.08546286 42.97817373 3.08546286 45.21875 1.875 C47 1 47 1 49.25 1.375 C49.8275 1.58125 50.405 1.7875 51 2 C51.3183515 6.0589816 51.39717586 8.3474968 49.25 11.875 C44.94689265 15.93904583 39.43764235 15.39704791 33.76171875 15.33984375 C21.62400484 14.24329016 10.57150012 8.73173522 0 3 C0 2.01 0 1.02 0 0 Z " fill="#E4EBEA" transform="translate(112,161)"/>
<path d="M0 0 C4.7109375 -0.1875 4.7109375 -0.1875 7.3125 1.5 C9.2111121 4.31275866 9.63412883 6.34045628 9.4453125 9.7265625 C6.62392015 24.1305129 -6.05330038 32.76444824 -17 41 C-17.73863281 41.56074219 -18.47726563 42.12148437 -19.23828125 42.69921875 C-20.79195561 43.84638851 -22.39306497 44.92870998 -24 46 C-24.33 44.35 -24.66 42.7 -25 41 C-23.948125 40.5875 -22.89625 40.175 -21.8125 39.75 C-13.77282465 36.23971921 -9.94026633 30.71863588 -6.6796875 22.7890625 C-3.92290368 15.31108005 -1.75090489 7.77230949 0 0 Z " fill="#E4EAE9" transform="translate(194,112)"/>
<path d="M0 0 C2 3 2 3 2 7 C0.948125 7.4125 -0.10375 7.825 -1.1875 8.25 C-10.0429376 12.1442587 -13.97488605 18.89649567 -17.45703125 27.671875 C-19.85767306 34.37539435 -21.62379156 40.85203961 -22 48 C-25.65013634 47.75112707 -27.57790891 47.34633115 -30.4375 45 C-32.71138901 40.63413311 -32.44456484 37.6514988 -31 33 C-25.35054289 20.75950959 -14.61849433 11.98831371 -3.08203125 5.53515625 C-0.83499779 4.17417579 -0.83499779 4.17417579 -0.19921875 1.80859375 C-0.13347656 1.21175781 -0.06773438 0.61492188 0 0 Z " fill="#E5ECEB" transform="translate(98,58)"/>
<path d="M0 0 C2.475 0.495 2.475 0.495 5 1 C4.96519531 1.78503906 4.93039063 2.57007812 4.89453125 3.37890625 C4.58582051 15.35982322 9.16941634 24.36176433 17.05859375 33.34375 C20.49853143 36.8292067 24.07782855 40.05837141 28 43 C27.0518738 45.37031549 26.31103322 46.76672508 24.25 48.3125 C20.96738328 49.31552177 19.27035117 49.1119194 16 48 C4.81745466 38.96903301 3.15731994 23.10808158 1.6328125 9.79296875 C1.47480558 8.1578365 1.33081814 6.52118129 1.2109375 4.8828125 C1.04117418 2.77579175 1.04117418 2.77579175 0 0 Z " fill="#E5ECEB" transform="translate(74,115)"/>
<path d="M0 0 C3.15429067 1.57993181 6.27989114 3.20807515 9.3984375 4.85742188 C9.0684375 5.51742187 8.7384375 6.17742188 8.3984375 6.85742188 C6.05093215 5.94871013 3.75836875 5.05721422 1.5546875 3.83398438 C-10.16920837 -2.33418472 -23.3840488 1.01535515 -35.4140625 4.72460938 C-37.48691727 5.40476485 -39.54628007 6.12588067 -41.6015625 6.85742188 C-43.02818469 4.0041775 -42.91190118 2.02287638 -42.6015625 -1.14257812 C-33.98577716 -14.5119002 -11.12069624 -5.44390104 0 0 Z " fill="#E5ECEB" transform="translate(148.6015625,49.142578125)"/>
<path d="M0 0 C0.35474539 3.07446006 0.50436057 5.93706028 0 9 C-2.625 11.6875 -2.625 11.6875 -6 13 C-9.02070001 12.36100577 -11.26327499 11.3683625 -14 10 C-14.28529291 6.62086399 -14.43346785 3.37021257 -14 0 C-9.35749435 -4.64250565 -5.18234318 -2.66238772 0 0 Z " fill="#E4EBEA" transform="translate(142,104)"/>
<path d="M0 0 C2.24587654 1.08134796 4.33545396 2.21503459 6.4375 3.5625 C9.02061794 5.01156616 11.08759012 5.58394145 14 6 C13.01 6.66 12.02 7.32 11 8 C6.92567642 7.02570523 3.37953536 5.48495247 0 3 C0 2.01 0 1.02 0 0 Z " fill="#D1D7D7" transform="translate(112,161)"/>
<path d="M0 0 C0.66 0.33 1.32 0.66 2 1 C0.4050992 2.19991599 -1.20126147 3.38461318 -2.8125 4.5625 C-3.70582031 5.22378906 -4.59914063 5.88507813 -5.51953125 6.56640625 C-6.33808594 7.03949219 -7.15664062 7.51257813 -8 8 C-8.99 7.67 -9.98 7.34 -11 7 C-11 6.34 -11 5.68 -11 5 C-9.21289414 4.13633178 -7.4201535 3.28431406 -5.625 2.4375 C-4.62726563 1.96183594 -3.62953125 1.48617187 -2.6015625 0.99609375 C-1.74304688 0.66738281 -0.88453125 0.33867188 0 0 Z " fill="#3C3D3D" transform="translate(96,61)"/>
<path d="M0 0 C0.99 0 1.98 0 3 0 C3.33 3.63 3.66 7.26 4 11 C2.35 11 0.7 11 -1 11 C-0.67 7.37 -0.34 3.74 0 0 Z " fill="#AAAEAD" transform="translate(191,91)"/>
<path d="M0 0 C2 3 2 3 2 7 C-0.64 7.99 -3.28 8.98 -6 10 C-6 9.01 -6 8.02 -6 7 C-5.195625 6.525625 -4.39125 6.05125 -3.5625 5.5625 C-0.8421105 4.26644144 -0.8421105 4.26644144 -0.1875 1.8125 C-0.125625 1.214375 -0.06375 0.61625 0 0 Z " fill="#CFD5D5" transform="translate(98,58)"/>
<path d="M0 0 C3.11198065 1.49836105 6.0534615 3.19933758 9 5 C8.67 5.66 8.34 6.32 8 7 C4.7 5.35 1.4 3.7 -2 2 C-1.34 1.34 -0.68 0.68 0 0 Z " fill="#454646" transform="translate(149,47)"/>
<path d="M0 0 C3.3 1.65 6.6 3.3 10 5 C9.67 5.99 9.34 6.98 9 8 C7.49460339 7.05016642 5.99579653 6.08988109 4.5 5.125 C3.6646875 4.59132812 2.829375 4.05765625 1.96875 3.5078125 C1.3190625 3.01023438 0.669375 2.51265625 0 2 C0 1.34 0 0.68 0 0 Z " fill="#424443" transform="translate(111,163)"/>
<path d="M0 0 C-2.25740623 2.33524782 -4.2805761 4.18705073 -7 6 C-7.33 4.35 -7.66 2.7 -8 1 C-3.375 -1.125 -3.375 -1.125 0 0 Z " fill="#CED4D3" transform="translate(177,152)"/>
<path d="M0 0 C-1 3 -1 3 -2.875 4.25 C-5 5 -5 5 -8 4 C-2.25 0 -2.25 0 0 0 Z " fill="#393A3A" transform="translate(180,151)"/>
</svg>
